<svg width="48" height="48" viewBox="0 0 48 48" fill="none" xmlns="http://www.w3.org/2000/svg">
  <g clip-path="url(#clip0_112_75)">
  <mask id="mask0_112_75" style="mask-type:luminance" maskUnits="userSpaceOnUse" x="0" y="0" width="48" height="48">
  <path d="M48 0H0V48H48V0Z" fill="white"/>
  </mask>
  <g mask="url(#mask0_112_75)">
  <path d="M0 24V48H24H48V24V0H24H0V24Z" fill="white"/>
  <path d="M0 24V48H24H48V24V0H24H0V24ZM18.9047 13.8094C19.8047 15.4828 20.625 17.0203 20.7328 17.2266C20.8359 17.4328 22.4484 20.4844 24.3094 24.0094L27.6984 30.4219L25.8797 33.6891C24.8766 35.4891 24.0375 36.9516 24.0188 36.9422C23.9953 36.9328 22.5187 34.1672 20.7375 30.8016C18.9609 27.4359 17.475 24.6281 17.4422 24.5625C17.3813 24.4547 17.3016 24.6 15.8859 27.4359L14.3906 30.4219H10.8469H7.30313L12.2438 20.5781C14.9578 15.1641 17.2031 10.7438 17.2266 10.7484C17.2547 10.7578 18.0094 12.1359 18.9047 13.8094ZM35.4844 20.3672C38.2453 25.5984 40.5797 30.0141 40.6734 30.1781L40.8328 30.4688L37.2422 30.4594L33.6516 30.4453L30.3703 24.2344C28.5609 20.8172 27.0328 17.9156 26.9672 17.7891L26.85 17.55L28.6406 14.1891C29.6297 12.3375 30.4406 10.8328 30.4453 10.8375C30.4547 10.8469 32.7188 15.1313 35.4844 20.3672Z" fill="black"/>
  </g>
  </g>
  <defs>
  <clipPath id="clip0_112_75">
  <rect width="48" height="48" rx="9.6" fill="white"/>
  </clipPath>
  </defs>
  </svg>
  